<mxfile host="Electron" modified="2024-03-23T14:34:36.008Z" agent="Mozilla/5.0 (Macintosh; Intel Mac OS X 10_15_7) AppleWebKit/537.36 (KHTML, like Gecko) draw.io/24.0.4 Chrome/120.0.6099.109 Electron/28.1.0 Safari/537.36" version="24.0.4" etag="ML063JhvOrYwo-XCc-Fs" type="device">
  <diagram id="N3iNR9u21cmziUtGoRfO" name="Page-1">
    <mxGraphModel dx="1194" dy="601" grid="1" gridSize="10" guides="1" tooltips="1" connect="1" arrows="1" fold="1" page="1" pageScale="1" pageWidth="826" pageHeight="1169" background="#ffffff" math="0" shadow="0">
      <root>
        <mxCell id="0" />
        <mxCell id="1" parent="0" />
        <object label="&lt;table border=&quot;1&quot; width=&quot;100%&quot; cellpadding=&quot;4&quot; style=&quot;width: 100% ; height: 100% ; border-collapse: collapse&quot;&gt;&lt;tbody&gt;&lt;tr style=&quot;background-color: #a7c942 ; color: #ffffff ; border: 1px solid #98bf21&quot;&gt;&lt;th align=&quot;left&quot;&gt;Request&lt;/th&gt;&lt;th align=&quot;left&quot;&gt;Status&lt;/th&gt;&lt;th align=&quot;left&quot;&gt;Next Status&lt;/th&gt;&lt;/tr&gt;&lt;tr style=&quot;border: 1px solid #98bf21&quot;&gt;&lt;td&gt;A&lt;/td&gt;&lt;td&gt;staged&lt;/td&gt;&lt;td&gt;acquired&lt;/td&gt;&lt;/tr&gt;&lt;tr style=&quot;background-color: #eaf2d3 ; border: 1px solid #98bf21&quot;&gt;&lt;td&gt;B&lt;/td&gt;&lt;td&gt;staged&lt;/td&gt;&lt;td&gt;acquired&lt;/td&gt;&lt;/tr&gt;&lt;tr style=&quot;border: 1px solid #98bf21&quot;&gt;&lt;td&gt;C&lt;/td&gt;&lt;td&gt;assignment-approved&lt;/td&gt;&lt;td&gt;&lt;br&gt;&lt;/td&gt;&lt;/tr&gt;&lt;/tbody&gt;&lt;/table&gt;" id="5">
          <mxCell style="text;html=1;fillColor=#ffffff;overflow=fill;rounded=0;direction=west;" parent="1" vertex="1">
            <mxGeometry x="300" y="90" width="260" height="120" as="geometry" />
          </mxCell>
        </object>
        <object label="&lt;table border=&quot;1&quot; width=&quot;100%&quot; cellpadding=&quot;4&quot; style=&quot;width: 100% ; height: 100% ; border-collapse: collapse&quot;&gt;&lt;tbody&gt;&lt;tr style=&quot;background-color: #a7c942 ; color: #ffffff ; border: 1px solid #98bf21&quot;&gt;&lt;th align=&quot;left&quot;&gt;Request&lt;/th&gt;&lt;th align=&quot;left&quot;&gt;Status&lt;/th&gt;&lt;th align=&quot;left&quot;&gt;Next status&lt;/th&gt;&lt;/tr&gt;&lt;tr style=&quot;border: 1px solid #98bf21&quot;&gt;&lt;td&gt;A&lt;/td&gt;&lt;td&gt;Negotiating&lt;/td&gt;&lt;td&gt;Acquired&lt;/td&gt;&lt;/tr&gt;&lt;tr style=&quot;background-color: #eaf2d3 ; border: 1px solid #98bf21&quot;&gt;&lt;td&gt;B&lt;/td&gt;&lt;td&gt;Negotiating&lt;/td&gt;&lt;td&gt;Acquired&lt;/td&gt;&lt;/tr&gt;&lt;/tbody&gt;&lt;/table&gt;" id="6">
          <mxCell style="text;html=1;fillColor=#ffffff;overflow=fill;rounded=0;direction=west;" parent="1" vertex="1">
            <mxGeometry x="298" y="300" width="265" height="100" as="geometry" />
          </mxCell>
        </object>
        <mxCell id="14" value="reqmgr_workload_cache" style="text;html=1;resizable=0;autosize=1;align=left;verticalAlign=top;spacingTop=-4;points=[];" parent="1" vertex="1">
          <mxGeometry x="300" y="70" width="150" height="20" as="geometry" />
        </mxCell>
        <mxCell id="16" value="queueWork" style="ellipse" parent="1" vertex="1">
          <mxGeometry x="117" y="230" width="80" height="30" as="geometry" />
        </mxCell>
        <mxCell id="21" value="replicate" style="rounded=1;" parent="1" vertex="1">
          <mxGeometry x="117" y="610" width="80" height="30" as="geometry" />
        </mxCell>
        <mxCell id="23" value="Replication" style="rounded=1;" parent="1" vertex="1">
          <mxGeometry x="157.5" y="675" width="125" height="30" as="geometry" />
        </mxCell>
        <mxCell id="40" value="" style="edgeStyle=segmentEdgeStyle;endArrow=classic;html=1;exitX=1;exitY=0.25;entryX=1;entryY=0;" parent="1" source="5" target="16" edge="1">
          <mxGeometry width="50" height="50" relative="1" as="geometry">
            <mxPoint x="20" y="60" as="sourcePoint" />
            <mxPoint x="200" y="220" as="targetPoint" />
            <Array as="points">
              <mxPoint x="185" y="180" />
            </Array>
          </mxGeometry>
        </mxCell>
        <mxCell id="42" value="" style="edgeStyle=segmentEdgeStyle;endArrow=classic;html=1;exitX=1;exitY=1;entryX=1;entryY=0.5;" parent="1" source="16" target="6" edge="1">
          <mxGeometry width="50" height="50" relative="1" as="geometry">
            <mxPoint x="20" y="60" as="sourcePoint" />
            <mxPoint x="290" y="340" as="targetPoint" />
            <Array as="points">
              <mxPoint x="185" y="350" />
            </Array>
          </mxGeometry>
        </mxCell>
        <mxCell id="44" value="GQ: workqueue_inbox" style="text;html=1;resizable=0;points=[];autosize=1;align=left;verticalAlign=top;spacingTop=-4;" parent="1" vertex="1">
          <mxGeometry x="296" y="280" width="130" height="20" as="geometry" />
        </mxCell>
        <mxCell id="50" value="Pull Work and change status to Negotiating" style="text;html=1;resizable=0;autosize=1;align=left;verticalAlign=top;spacingTop=-4;points=[];" parent="1" vertex="1">
          <mxGeometry x="210" y="230" width="250" height="20" as="geometry" />
        </mxCell>
        <mxCell id="54" value="&lt;table border=&quot;1&quot; width=&quot;100%&quot; cellpadding=&quot;4&quot; style=&quot;width: 100% ; height: 100% ; border-collapse: collapse&quot;&gt;&lt;tbody&gt;&lt;tr style=&quot;background-color: #a7c942 ; color: #ffffff ; border: 1px solid #98bf21&quot;&gt;&lt;th align=&quot;left&quot;&gt;Block&lt;/th&gt;&lt;th align=&quot;left&quot;&gt;Status&lt;/th&gt;&lt;th align=&quot;left&quot;&gt;Next status&lt;/th&gt;&lt;td&gt;Next status&lt;/td&gt;&lt;/tr&gt;&lt;tr style=&quot;border: 1px solid #98bf21&quot;&gt;&lt;td&gt;a1&lt;/td&gt;&lt;td&gt;Available&lt;/td&gt;&lt;td&gt;&lt;span&gt;Negotiating&lt;/span&gt;&lt;br&gt;&lt;/td&gt;&lt;td&gt;Acquired&lt;/td&gt;&lt;/tr&gt;&lt;tr style=&quot;background-color: #eaf2d3 ; border: 1px solid #98bf21&quot;&gt;&lt;td&gt;a2&lt;/td&gt;&lt;td&gt;Available&lt;/td&gt;&lt;td&gt;&lt;span&gt;Negotiating&lt;/span&gt;&lt;br&gt;&lt;/td&gt;&lt;td&gt;Acquired&lt;/td&gt;&lt;/tr&gt;&lt;tr style=&quot;border: 1px solid #98bf21&quot;&gt;&lt;td&gt;b1&lt;/td&gt;&lt;td&gt;Available&lt;/td&gt;&lt;td&gt;&lt;span&gt;Negotiating&lt;/span&gt;&lt;br&gt;&lt;/td&gt;&lt;td&gt;Acquired&lt;/td&gt;&lt;/tr&gt;&lt;tr style=&quot;background-color: #eaf2d3 ; border: 1px solid #98bf21&quot;&gt;&lt;td&gt;b2&lt;/td&gt;&lt;td&gt;Available&lt;/td&gt;&lt;td&gt;&lt;span&gt;Negotiating&lt;/span&gt;&lt;br&gt;&lt;/td&gt;&lt;td&gt;Acquired&lt;/td&gt;&lt;/tr&gt;&lt;/tbody&gt;&lt;/table&gt;" style="text;html=1;fillColor=#ffffff;overflow=fill;rounded=0;" parent="1" vertex="1">
          <mxGeometry x="304" y="495" width="262" height="130" as="geometry" />
        </mxCell>
        <mxCell id="55" value="" style="edgeStyle=segmentEdgeStyle;endArrow=classic;html=1;entryX=0.75;entryY=0;" parent="1" edge="1">
          <mxGeometry width="50" height="50" relative="1" as="geometry">
            <mxPoint x="298" y="390" as="sourcePoint" />
            <mxPoint x="190" y="460" as="targetPoint" />
            <Array as="points">
              <mxPoint x="190" y="390" />
            </Array>
          </mxGeometry>
        </mxCell>
        <mxCell id="56" value="" style="edgeStyle=segmentEdgeStyle;endArrow=classic;html=1;exitX=0.75;exitY=1;" parent="1" edge="1">
          <mxGeometry x="200" y="400" width="50" height="50" as="geometry">
            <mxPoint x="190" y="490" as="sourcePoint" />
            <mxPoint x="300" y="550" as="targetPoint" />
            <Array as="points">
              <mxPoint x="190" y="550" />
            </Array>
          </mxGeometry>
        </mxCell>
        <mxCell id="57" value="processInboundWork" style="ellipse" parent="1" vertex="1">
          <mxGeometry x="95" y="455" width="150" height="40" as="geometry" />
        </mxCell>
        <mxCell id="67" value="pullWork" style="ellipse" parent="1" vertex="1">
          <mxGeometry x="95" y="605" width="150" height="40" as="geometry" />
        </mxCell>
        <mxCell id="59" value="Split the inbox WE to blocks and put in workqueue db" style="text;html=1;resizable=0;points=[];autosize=1;align=left;verticalAlign=top;spacingTop=-4;" parent="1" vertex="1">
          <mxGeometry x="211" y="435" width="300" height="20" as="geometry" />
        </mxCell>
        <mxCell id="60" value="" style="edgeStyle=elbowEdgeStyle;elbow=vertical;endArrow=classic;html=1;entryX=0.162;entryY=-0.07;entryPerimeter=0;" parent="1" target="6" edge="1">
          <mxGeometry width="50" height="50" relative="1" as="geometry">
            <mxPoint x="520" y="490" as="sourcePoint" />
            <mxPoint x="480" y="428" as="targetPoint" />
            <Array as="points">
              <mxPoint x="470" y="478" />
            </Array>
          </mxGeometry>
        </mxCell>
        <mxCell id="62" value="" style="edgeStyle=elbowEdgeStyle;elbow=vertical;endArrow=classic;html=1;" parent="1" edge="1">
          <mxGeometry width="50" height="50" relative="1" as="geometry">
            <mxPoint x="512" y="310" as="sourcePoint" />
            <mxPoint x="512" y="212" as="targetPoint" />
          </mxGeometry>
        </mxCell>
        <mxCell id="64" value="&lt;table border=&quot;1&quot; width=&quot;100%&quot; cellpadding=&quot;4&quot; style=&quot;width: 100% ; height: 100% ; border-collapse: collapse&quot;&gt;&lt;tbody&gt;&lt;tr style=&quot;background-color: #a7c942 ; color: #ffffff ; border: 1px solid #98bf21&quot;&gt;&lt;th align=&quot;left&quot;&gt;Block&lt;/th&gt;&lt;th align=&quot;left&quot;&gt;Status&lt;/th&gt;&lt;th align=&quot;left&quot;&gt;Next status&lt;/th&gt;&lt;/tr&gt;&lt;tr style=&quot;border: 1px solid #98bf21&quot;&gt;&lt;td&gt;a1&lt;/td&gt;&lt;td&gt;Negotiating&lt;/td&gt;&lt;td&gt;Acquired&lt;/td&gt;&lt;/tr&gt;&lt;tr style=&quot;background-color: #eaf2d3 ; border: 1px solid #98bf21&quot;&gt;&lt;td&gt;a2&lt;/td&gt;&lt;td&gt;&lt;span&gt;Negotiating&lt;/span&gt;&lt;/td&gt;&lt;td&gt;Acquired&lt;/td&gt;&lt;/tr&gt;&lt;tr style=&quot;border: 1px solid #98bf21&quot;&gt;&lt;td&gt;b1&lt;/td&gt;&lt;td&gt;&lt;span&gt;Negotiating&lt;/span&gt;&lt;/td&gt;&lt;td&gt;Acquired&lt;/td&gt;&lt;/tr&gt;&lt;tr style=&quot;background-color: #eaf2d3 ; border: 1px solid #98bf21&quot;&gt;&lt;td&gt;b2&lt;/td&gt;&lt;td&gt;&lt;span&gt;Negotiating&lt;/span&gt;&lt;/td&gt;&lt;td&gt;&lt;span&gt;Acquired&lt;/span&gt;&lt;br&gt;&lt;/td&gt;&lt;/tr&gt;&lt;/tbody&gt;&lt;/table&gt;" style="text;html=1;fillColor=#ffffff;overflow=fill;rounded=0;" parent="1" vertex="1">
          <mxGeometry x="301" y="720" width="262" height="130" as="geometry" />
        </mxCell>
        <mxCell id="65" value="LQ: workqueue_inbox&lt;div&gt;&lt;br&gt;&lt;/div&gt;" style="text;html=1;resizable=0;points=[];autosize=1;align=left;verticalAlign=top;spacingTop=-4;" parent="1" vertex="1">
          <mxGeometry x="301" y="700" width="130" height="30" as="geometry" />
        </mxCell>
        <mxCell id="69" value="" style="edgeStyle=segmentEdgeStyle;endArrow=classic;html=1;" parent="1" edge="1">
          <mxGeometry width="50" height="50" relative="1" as="geometry">
            <mxPoint x="300" y="580" as="sourcePoint" />
            <mxPoint x="200" y="600" as="targetPoint" />
          </mxGeometry>
        </mxCell>
        <mxCell id="70" value="" style="edgeStyle=segmentEdgeStyle;endArrow=classic;html=1;entryX=0.527;entryY=1.008;exitX=0.733;exitY=0.975;exitPerimeter=0;entryPerimeter=0;" parent="1" source="67" target="54" edge="1">
          <mxGeometry width="50" height="50" relative="1" as="geometry">
            <mxPoint x="211" y="675" as="sourcePoint" />
            <mxPoint x="261" y="625" as="targetPoint" />
            <Array as="points">
              <mxPoint x="205" y="650" />
              <mxPoint x="442" y="650" />
            </Array>
          </mxGeometry>
        </mxCell>
        <mxCell id="71" value="" style="edgeStyle=segmentEdgeStyle;endArrow=classic;html=1;entryX=0.75;entryY=0;" parent="1" target="23" edge="1">
          <mxGeometry x="210" y="590" width="50" height="50" as="geometry">
            <mxPoint x="300" y="590" as="sourcePoint" />
            <mxPoint x="210" y="610" as="targetPoint" />
            <Array as="points">
              <mxPoint x="251" y="590" />
            </Array>
          </mxGeometry>
        </mxCell>
        <mxCell id="72" value="" style="edgeStyle=segmentEdgeStyle;endArrow=classic;html=1;exitX=0.75;exitY=1;" parent="1" source="23" edge="1">
          <mxGeometry x="215" y="643" width="50" height="50" as="geometry">
            <mxPoint x="215" y="654" as="sourcePoint" />
            <mxPoint x="303" y="780" as="targetPoint" />
            <Array as="points">
              <mxPoint x="251" y="780" />
            </Array>
          </mxGeometry>
        </mxCell>
        <mxCell id="73" value="processInboundWork" style="ellipse" parent="1" vertex="1">
          <mxGeometry x="90" y="900" width="150" height="40" as="geometry" />
        </mxCell>
        <mxCell id="75" value="&lt;table border=&quot;1&quot; width=&quot;100%&quot; cellpadding=&quot;4&quot; style=&quot;width: 100% ; height: 100% ; border-collapse: collapse&quot;&gt;&lt;tbody&gt;&lt;tr style=&quot;background-color: #a7c942 ; color: #ffffff ; border: 1px solid #98bf21&quot;&gt;&lt;th align=&quot;left&quot;&gt;Block&lt;/th&gt;&lt;th align=&quot;left&quot;&gt;Status&lt;/th&gt;&lt;th align=&quot;left&quot;&gt;Next status&lt;/th&gt;&lt;/tr&gt;&lt;tr style=&quot;border: 1px solid #98bf21&quot;&gt;&lt;td&gt;a1&lt;/td&gt;&lt;td&gt;Available&lt;/td&gt;&lt;td&gt;Running&lt;/td&gt;&lt;/tr&gt;&lt;tr style=&quot;background-color: #eaf2d3 ; border: 1px solid #98bf21&quot;&gt;&lt;td&gt;a2&lt;/td&gt;&lt;td&gt;Available&lt;/td&gt;&lt;td&gt;Running&lt;/td&gt;&lt;/tr&gt;&lt;tr style=&quot;border: 1px solid #98bf21&quot;&gt;&lt;td&gt;b1&lt;/td&gt;&lt;td&gt;Available&lt;/td&gt;&lt;td&gt;Running&lt;/td&gt;&lt;/tr&gt;&lt;tr style=&quot;background-color: #eaf2d3 ; border: 1px solid #98bf21&quot;&gt;&lt;td&gt;b2&lt;/td&gt;&lt;td&gt;Available&lt;/td&gt;&lt;td&gt;&lt;span&gt;Running&lt;/span&gt;&lt;br&gt;&lt;/td&gt;&lt;/tr&gt;&lt;/tbody&gt;&lt;/table&gt;" style="text;html=1;fillColor=#ffffff;overflow=fill;rounded=0;" parent="1" vertex="1">
          <mxGeometry x="304" y="950" width="262" height="130" as="geometry" />
        </mxCell>
        <mxCell id="78" value="Split the inbox WE to blocks and put in workqueue db" style="text;html=1;resizable=0;points=[];autosize=1;align=left;verticalAlign=top;spacingTop=-4;" parent="1" vertex="1">
          <mxGeometry x="230" y="880" width="300" height="20" as="geometry" />
        </mxCell>
        <mxCell id="79" value="" style="edgeStyle=segmentEdgeStyle;endArrow=classic;html=1;entryX=0.587;entryY=-0.05;entryDx=0;entryDy=0;entryPerimeter=0;" parent="1" edge="1" target="73">
          <mxGeometry x="196" y="805" width="50" height="50" as="geometry">
            <mxPoint x="304" y="805" as="sourcePoint" />
            <mxPoint x="143" y="890" as="targetPoint" />
            <Array as="points">
              <mxPoint x="178" y="805" />
            </Array>
          </mxGeometry>
        </mxCell>
        <mxCell id="80" value="" style="edgeStyle=segmentEdgeStyle;endArrow=classic;html=1;exitX=0.593;exitY=1;exitPerimeter=0;entryX=0;entryY=0.5;entryDx=0;entryDy=0;" parent="1" source="73" edge="1" target="75">
          <mxGeometry x="160" y="892" width="50" height="50" as="geometry">
            <mxPoint x="150" y="982" as="sourcePoint" />
            <mxPoint x="300" y="1042" as="targetPoint" />
            <Array as="points">
              <mxPoint x="180" y="940" />
              <mxPoint x="180" y="1015" />
            </Array>
          </mxGeometry>
        </mxCell>
        <mxCell id="81" value="LQ: workqueue" style="text;html=1;resizable=0;points=[];autosize=1;align=left;verticalAlign=top;spacingTop=-4;" parent="1" vertex="1">
          <mxGeometry x="301" y="930" width="100" height="20" as="geometry" />
        </mxCell>
        <mxCell id="83" value="" style="edgeStyle=elbowEdgeStyle;elbow=vertical;endArrow=classic;html=1;exitX=0.878;exitY=-0.015;exitPerimeter=0;entryX=0.893;entryY=1.015;entryDx=0;entryDy=0;entryPerimeter=0;exitDx=0;exitDy=0;" parent="1" edge="1" target="64" source="75">
          <mxGeometry x="405" y="883" width="50" height="50" as="geometry">
            <mxPoint x="416" y="970" as="sourcePoint" />
            <mxPoint x="512" y="870" as="targetPoint" />
            <Array as="points">
              <mxPoint x="486" y="941" />
            </Array>
          </mxGeometry>
        </mxCell>
        <mxCell id="84" value="Replication" style="rounded=1;" parent="1" vertex="1">
          <mxGeometry x="566.5" y="675" width="125" height="30" as="geometry" />
        </mxCell>
        <mxCell id="85" value="" style="edgeStyle=segmentEdgeStyle;endArrow=classic;html=1;" parent="1" edge="1">
          <mxGeometry width="50" height="50" relative="1" as="geometry">
            <mxPoint x="570" y="760" as="sourcePoint" />
            <mxPoint x="640" y="710" as="targetPoint" />
          </mxGeometry>
        </mxCell>
        <mxCell id="86" value="" style="edgeStyle=segmentEdgeStyle;endArrow=classic;html=1;entryX=1;entryY=0.808;entryDx=0;entryDy=0;entryPerimeter=0;" parent="1" edge="1" target="54">
          <mxGeometry x="580" y="720" width="50" height="50" as="geometry">
            <mxPoint x="640" y="670" as="sourcePoint" />
            <mxPoint x="600" y="560" as="targetPoint" />
            <Array as="points">
              <mxPoint x="640" y="600" />
            </Array>
          </mxGeometry>
        </mxCell>
        <mxCell id="87" value="" style="edgeStyle=segmentEdgeStyle;endArrow=classic;html=1;" parent="1" source="64" edge="1">
          <mxGeometry width="50" height="50" relative="1" as="geometry">
            <mxPoint x="486" y="675" as="sourcePoint" />
            <mxPoint x="536" y="625" as="targetPoint" />
            <Array as="points" />
          </mxGeometry>
        </mxCell>
        <mxCell id="88" value="getWork" style="ellipse" parent="1" vertex="1">
          <mxGeometry x="70" y="1110" width="150" height="40" as="geometry" />
        </mxCell>
        <mxCell id="90" value="Populate WMBS db with subscription" style="text;html=1;resizable=0;points=[];autosize=1;align=left;verticalAlign=top;spacingTop=-4;" parent="1" vertex="1">
          <mxGeometry x="230" y="1100" width="210" height="20" as="geometry" />
        </mxCell>
        <mxCell id="91" value="" style="edgeStyle=segmentEdgeStyle;endArrow=classic;html=1;exitX=0.023;exitY=0.769;exitDx=0;exitDy=0;exitPerimeter=0;entryX=0.567;entryY=-0.075;entryDx=0;entryDy=0;entryPerimeter=0;" parent="1" edge="1" target="88" source="75">
          <mxGeometry x="210" y="1079" width="50" height="50" as="geometry">
            <mxPoint x="300" y="1079" as="sourcePoint" />
            <mxPoint x="100" y="1070" as="targetPoint" />
            <Array as="points">
              <mxPoint x="155" y="1050" />
            </Array>
          </mxGeometry>
        </mxCell>
        <mxCell id="94" value="WMBS DB" style="shape=cylinder;whiteSpace=wrap;html=1;" parent="1" vertex="1">
          <mxGeometry x="358" y="1170" width="110" height="99" as="geometry" />
        </mxCell>
        <mxCell id="95" value="" style="edgeStyle=segmentEdgeStyle;endArrow=classic;html=1;exitX=0.553;exitY=1.1;exitPerimeter=0;exitDx=0;exitDy=0;entryX=0;entryY=0.5;entryDx=0;entryDy=0;" parent="1" edge="1" target="94" source="88">
          <mxGeometry x="180" y="1162" width="50" height="50" as="geometry">
            <mxPoint x="170" y="1200" as="sourcePoint" />
            <mxPoint x="320" y="1312" as="targetPoint" />
            <Array as="points">
              <mxPoint x="153" y="1220" />
            </Array>
          </mxGeometry>
        </mxCell>
        <mxCell id="96" value="" style="edgeStyle=elbowEdgeStyle;elbow=vertical;endArrow=classic;html=1;entryX=0.855;entryY=1.015;entryPerimeter=0;entryDx=0;entryDy=0;" parent="1" target="75" edge="1">
          <mxGeometry x="449" y="1163" width="50" height="50" as="geometry">
            <mxPoint x="470" y="1221" as="sourcePoint" />
            <mxPoint x="556" y="1150" as="targetPoint" />
            <Array as="points">
              <mxPoint x="530" y="1221" />
            </Array>
          </mxGeometry>
        </mxCell>
        <mxCell id="97" value="&lt;b&gt;&lt;font style=&quot;font-size: 22px&quot;&gt;Local Queue&lt;/font&gt;&lt;/b&gt;" style="text;html=1;resizable=0;points=[];autosize=1;align=left;verticalAlign=top;spacingTop=-4;fontStyle=1" parent="1" vertex="1">
          <mxGeometry x="590" y="785" width="150" height="20" as="geometry" />
        </mxCell>
        <mxCell id="98" value="&lt;meta http-equiv=&quot;Content-Type&quot; content=&quot;text/html;charset=UTF-8&quot;&gt;&lt;b style=&quot;color: rgb(0, 0, 0); font-family: Helvetica; font-size: 12px; font-style: normal; font-variant: normal; letter-spacing: normal; line-height: 14.4px; orphans: auto; text-align: left; text-indent: 0px; text-transform: none; white-space: nowrap; widows: 1; word-spacing: 0px; -webkit-text-stroke-width: 0px; background-color: rgb(235, 235, 235);&quot;&gt;&lt;font style=&quot;font-size: 22px;&quot;&gt;Global Queue&lt;/font&gt;&lt;/b&gt;" style="text;html=1;" parent="1" vertex="1">
          <mxGeometry x="570" y="316" width="170" height="30" as="geometry" />
        </mxCell>
        <mxCell id="100" value="&lt;b&gt;&lt;font style=&quot;font-size: 22px&quot;&gt;WMBS&lt;/font&gt;&lt;/b&gt;" style="text;html=1;resizable=0;points=[];autosize=1;align=left;verticalAlign=top;spacingTop=-4;" parent="1" vertex="1">
          <mxGeometry x="584" y="1180" width="90" height="20" as="geometry" />
        </mxCell>
        <mxCell id="103" value="&lt;b style=&quot;color: rgb(0 , 0 , 0) ; font-family: &amp;quot;helvetica&amp;quot; ; font-size: 12px ; font-style: normal ; font-variant: normal ; letter-spacing: normal ; line-height: 14.4px ; text-align: left ; text-indent: 0px ; text-transform: none ; white-space: nowrap ; word-spacing: 0px ; background-color: rgb(235 , 235 , 235)&quot;&gt;&lt;font style=&quot;font-size: 22px&quot;&gt;ReqMgr2&lt;/font&gt;&lt;/b&gt;" style="text;html=1;" parent="1" vertex="1">
          <mxGeometry x="570" y="120" width="170" height="30" as="geometry" />
        </mxCell>
        <mxCell id="x2BYrLr6mBePkXB-8l8d-103" value="GQ: workqueue" style="text;html=1;resizable=0;points=[];autosize=1;align=left;verticalAlign=top;spacingTop=-4;" vertex="1" parent="1">
          <mxGeometry x="303" y="475" width="110" height="20" as="geometry" />
        </mxCell>
      </root>
    </mxGraphModel>
  </diagram>
</mxfile>
